<?xml version="1.0" encoding="UTF-8" standalone="no"?>
<svg
   xmlns:dc="http://purl.org/dc/elements/1.1/"
   xmlns:cc="http://creativecommons.org/ns#"
   xmlns:rdf="http://www.w3.org/1999/02/22-rdf-syntax-ns#"
   xmlns:svg="http://www.w3.org/2000/svg"
   xmlns="http://www.w3.org/2000/svg"
   xmlns:sodipodi="http://sodipodi.sourceforge.net/DTD/sodipodi-0.dtd"
   xmlns:inkscape="http://www.inkscape.org/namespaces/inkscape"
   inkscape:version="1.0beta1 (fe3e306, 2019-09-17)"
   sodipodi:docname="CCRI_Logo_White_1in.svg"
   viewBox="0 0 95.134386 64.110845"
   height="0.66782129in"
   width="0.99098319in"
   id="svg468"
   version="1.1">
  <metadata
     id="metadata474">
    <rdf:RDF>
      <cc:Work
         rdf:about="">
        <dc:format>image/svg+xml</dc:format>
        <dc:type
           rdf:resource="http://purl.org/dc/dcmitype/StillImage" />
        <dc:title></dc:title>
      </cc:Work>
    </rdf:RDF>
  </metadata>
  <defs
     id="defs472" />
  <sodipodi:namedview
     fit-margin-right="0"
     fit-margin-left="0"
     fit-margin-bottom="0.05"
     fit-margin-top="0.05"
     units="in"
     inkscape:current-layer="g476"
     inkscape:window-maximized="0"
     inkscape:window-y="497"
     inkscape:window-x="477"
     inkscape:cy="32.055421"
     inkscape:cx="4.3478386"
     inkscape:zoom="4.454023"
     showgrid="false"
     id="namedview470"
     inkscape:window-height="928"
     inkscape:window-width="1367"
     inkscape:pageshadow="2"
     inkscape:pageopacity="0"
     guidetolerance="10"
     gridtolerance="10"
     objecttolerance="10"
     borderopacity="1"
     inkscape:document-rotation="0"
     bordercolor="#666666"
     pagecolor="#ffffff" />
  <g
     transform="translate(-0.75280597,4.2154213)"
     id="g476"
     inkscape:label="Image"
     inkscape:groupmode="layer">
    <path
       inkscape:connector-curvature="0"
       id="path480"
       d="m 39.247194,21.092134 c -3.99648,0 -3.77088,-4.099552 -5.76,-7.04 h -0.64 c -5.238528,8.5984 -5.607744,20.12096 -0.32,28.8 l 5.76,-5.76 c 0,4.24 -0.09248,5.85248 -3.2,8.96 v 0.32 c 7.7168,7.7168 19.206079,10.6336 29.759999,7.45792 3.70176,-1.11392 9.1536,-3.82752 10.96896,-7.45792 0.59872,-1.19776 0.23104,-3.16672 0.23104,-4.48 h 19.84 v -1.28 c -1.704,0 -5.00416,0.24032 -6.30208,-1.05792 -0.99744,-0.99712 -0.73792,-2.78688 -0.73792,-4.06208 v -9.6 l -16.96,2.24 v 1.28 c 1.4976,0 4.75872,-0.872832 6,-0.0889 1.7472,1.103424 1.72864,8.899456 0.32,10.230976 -1.38368,1.30848 -4.85056,1.05792 -6.64,1.05792 v 1.28 h 4.16 c -2.92736,3.08288 -5.65088,6.1008 -9.599999,7.92 -8.050881,3.70848 -17.842561,0.46784 -21.12,-7.92 h 19.839999 c -0.45312,-2.38496 -4.43456,-0.66112 -6.04448,-2.27552 -1.8064,-1.81152 -1.09088,-8.81728 -0.54208,-11.16448 0.20736,-0.887776 0.61952,-1.790528 1.10208,-2.56 4.21184,-6.714144 9.95968,2.191456 14.73792,-2.586656 3.02304,-3.023072 -1.99456,-5.087648 -4.45344,-5.093344 -5.18176,-0.012 -7.76576,2.855104 -11.84,5.44 v -4.8 l -14.719999,1.920004 c 0.6752,-13.3947844 15.597759,-21.29296946 26.239999,-12.6755524 2.26784,1.836384 3.91456,4.5518404 4.99552,7.2355524 0.69312,1.72064 0.49888,3.47328 2.68448,3.52 V 0.61213354 h -1.6 c -0.33472,1.62596806 -1.2336,3.72748806 -3.2,3.78665606 -1.94528,0.05856 -4.26176,-1.367216 -6.079999,-1.973321 -3.622401,-1.207504 -7.357441,-2.02682606 -11.200001,-1.80444806 -4.21632,0.244003 -13.159999,2.01805106 -15.448959,6.09776906 -0.59072,1.053312 -0.23104,2.959648 -0.23104,4.1333444 v 10.24 m -1.6,18.24 c -2.0256,0.75296 -3.63872,3.33248 -5.44,4.66656 -3.815872,2.82656 -9.505024,3.67776 -13.76,1.33344 -3.633632,-2.00192 -5.237856,-5.68928 -6.195552,-9.52 -2.227552,-8.910144 -1.470208,-24.23504 9.715552,-26.7466564 4.56976,-1.02608 9.545632,1.2093764 12.16,4.9866564 1.18432,1.711104 2.0096,6.237504 4.16,6.4 V 6.0521336 c -2.00704,0.151648 -1.6976,2.762048 -3.84,2.826656 -1.7632,0.05318 -3.780352,-1.34032 -5.44,-1.866656 -3.09744,-0.982272 -6.686016,-1.345536 -9.92,-0.888896 -20.7354646,2.927968 -25.5524466,34.0725764 -5.76,42.0444164 7.54656,3.03968 24.32,1.8512 24.32,-8.83552 M 81.167193,18.336582 c -2.19168,0.426144 -5.67744,2.897984 -2.85344,5.084448 1.86592,1.444544 5.11232,1.49856 7.33344,1.066656 2.14016,-0.41616 5.33312,-2.623168 2.84448,-4.862208 -1.79328,-1.613376 -5.07904,-1.725536 -7.32448,-1.288896 m -38.399999,4.035552 c 1.41248,0 3.94112,-0.494016 4.96,0.72 2.047359,2.43904 0.883839,9.69664 0.799999,12.72 -0.02752,0.99072 -0.05248,2.98752 -0.746559,3.74208 -3.51712,3.82368 -4.56608,-3.40352 -4.88896,-5.34208 -0.26208,-1.57184 -0.44448,-3.206144 -0.44448,-4.8 0,-2.36512 -0.12032,-4.711744 0.32,-7.04 z"
       style="fill:#ffffff;fill-opacity:1;stroke:none;stroke-width:0.32" />
  </g>
</svg>
